<?xml version="1.0" encoding="UTF-8"?>
<svg xmlns="http://www.w3.org/2000/svg" version="1.1" viewBox="0 0 396 173">
  <defs>
    <style>
      .cls-1 {
        stroke-width: 5px;
      }

      .cls-1, .cls-2 {
        fill: none;
        stroke: #1d1d1b;
        stroke-miterlimit: 10;
      }
    </style>
  </defs>
  <!-- Generator: Adobe Illustrator 28.7.1, SVG Export Plug-In . SVG Version: 1.2.0 Build 142)  -->
  <g>
    <g id="_Слой_1" data-name="Слой_1">
      <g id="_Слой_1-2" data-name="_Слой_1">
        <g id="_Слой_1-2">
          <path class="cls-1" d="M8.3,7.2v159.5h35.6v-44l16-17.7s2-.2,5.1,5.8c3.1,6.1,34.8,55.9,34.8,55.9h42.7v-4.5l-54.6-85.9s-.5-3.8.8-6.3S135.9,7.3,135.9,7.3h-43.2l-46.5,53.8-1.8-53.8H8.3Z"/>
          <polygon class="cls-1" points="142.4 6.8 142.4 166.3 251.3 166.3 251.3 132.3 179.5 131.8 179.2 101.3 241.7 101.1 242.2 66.5 179.7 66.5 179 41.1 248.5 40.6 248.5 6.8 142.4 6.8"/>
          <polygon class="cls-1" points="248.9 7.2 292.1 7.2 321 62.6 349 7.2 390.9 7.2 390.9 11.3 340.4 100.9 339.6 166 301.5 166 302 100.1 248.9 12.1 248.9 7.2"/>
          <path class="cls-2" d="M143.8,227"/>
        </g>
      </g>
    </g>
  </g>
</svg>